<svg id="Layer_2" data-name="Layer 2" xmlns="http://www.w3.org/2000/svg" viewBox="0 0 291.21 167.57"><defs><style>.cls-1{fill:#dac245;}.cls-2{fill:#fff;}</style></defs><title>Artboard 5LOGO</title><path class="cls-1" d="M0,2.36.46,77.52h0c0,35.62,35.86,50.56,35.86,50.56,22.06,11.73,51.94,2.53,51.94,2.53L75.39,111.76c-19.31,4.37-31.26-3.9-31.26-3.9-17-8.51-21.83-27.81-21.83-27.81l-.46-55.86H71c30.34,5.29,54.71,42.07,54.71,42.07L139.52,49C101.13,4,74.93,2.36,74.93,2.36Z"/><path class="cls-1" d="M107.8,106.94l37.54,58.38,37.5-57.58-19.13-28.1L150.26,96.36l7.41,10.52L145.34,125.5l-13-19C191,26.49,212.61,25.11,212.61,25.11h55.62V78s-6.9,40.45-53.32,34.47l-13.8,17.93C282,151.07,291.21,78,291.21,78V2.36H209.85S179.05,2.36,107.8,106.94Z"/><circle class="cls-2" cx="65.97" cy="68.32" r="19.77"/><circle class="cls-2" cx="224.56" cy="68.32" r="19.77"/></svg>